<svg width="68" height="69" viewBox="0 0 68 69" fill="none" xmlns="http://www.w3.org/2000/svg">
<path d="M34 68.8179C52.7777 68.8179 68 53.5956 68 34.8179C68 16.0402 52.7777 0.817871 34 0.817871C15.2223 0.817871 0 16.0402 0 34.8179C0 53.5956 15.2223 68.8179 34 68.8179Z" fill="url(#paint0_linear)"/>
<path d="M46.1981 36.0359L29.2168 45.779C28.7817 46.028 28.2428 46.0315 27.8018 45.779C27.3651 45.5277 27.0942 45.0635 27.0942 44.5608V25.0744C27.0942 24.5717 27.3651 24.1075 27.8018 23.8562C28.2385 23.6062 28.7801 23.6062 29.2168 23.8562L46.1981 33.5993C46.6348 33.8507 46.9057 34.3149 46.9057 34.8176C46.9057 35.3204 46.6348 35.7845 46.1981 36.0359Z" fill="#2B2A29"/>
<defs>
<linearGradient id="paint0_linear" x1="34" y1="68.8179" x2="34" y2="0.817871" gradientUnits="userSpaceOnUse">
<stop stop-color="#FFE59A"/>
<stop offset="1" stop-color="#FFFFD5"/>
</linearGradient>
</defs>
</svg>
