<svg width="40" height="41" viewBox="0 0 40 41" fill="none" xmlns="http://www.w3.org/2000/svg">
<g opacity="0.05">
<path d="M38.796 33.5528L33.1973 27.9541C34.9969 25.1547 35.9967 21.9554 35.9967 18.3562C35.9967 8.35853 27.9985 0.360352 18.0008 0.360352C8.00306 0.360352 0.00488281 8.35853 0.00488281 18.3562C0.00488281 28.354 8.00306 36.3521 18.0008 36.3521C21.6 36.3521 24.7992 35.3524 27.5986 33.5528L33.1973 39.1515C34.797 40.7511 37.1964 40.7511 38.796 39.1515C40.3957 37.5519 40.3957 35.1524 38.796 33.5528ZM18.0008 32.3531C10.2026 32.3531 4.00397 26.1545 4.00397 18.3562C4.00397 10.558 10.2026 4.35944 18.0008 4.35944C25.799 4.35944 31.9976 10.558 31.9976 18.3562C31.9976 26.1545 25.599 32.3531 18.0008 32.3531Z" fill="#2B2A29"/>
<path d="M25.9983 16.3568H19.9997V10.3582C19.9997 9.15846 19.1999 8.35864 18.0002 8.35864C16.8004 8.35864 16.0006 9.35841 16.0006 10.3582V16.3568H10.002C9.00221 16.3568 8.00244 17.1566 8.00244 18.3564C8.00244 19.5561 8.80226 20.3559 10.002 20.3559H16.0006V26.3545C16.0006 27.5543 16.8004 28.3541 18.0002 28.3541C19.1999 28.3541 19.9997 27.5543 19.9997 26.3545V20.3559H25.9983C27.1981 20.3559 27.9979 19.5561 27.9979 18.3564C27.9979 17.1566 26.9981 16.3568 25.9983 16.3568Z" fill="#2B2A29"/>
</g>
</svg>
