<svg width="264" height="59" viewBox="0 0 264 59" fill="none" xmlns="http://www.w3.org/2000/svg">
<path d="M263.553 46.2715C263.553 52.8989 258.18 58.2715 251.553 58.2715H12.5527C5.92531 58.2715 0.552734 52.8989 0.552734 46.2715V12.2715C0.552734 5.64407 5.92532 0.271484 12.5527 0.271484H251.553C258.18 0.271484 263.553 5.64407 263.553 12.2715V46.2715Z" fill="#2B2A29"/>
<path d="M31.8671 17.6494H22.8384L31.9317 27.9194L16.5527 41.0674H25.5828L40.9604 27.9194L31.8671 17.6494Z" fill="#EF7F1A"/>
<path d="M45.4441 17.6494H36.4136L45.5087 27.9194L30.1299 41.0674H39.1599L54.5374 27.9194L45.4441 17.6494Z" fill="#F7A707"/>
<path d="M59.0216 17.6494H49.991L59.0862 27.9194L43.7073 41.0674H52.7379L68.1149 27.9194L59.0216 17.6494Z" fill="#FFD500"/>
<path d="M109.205 35.0363C110.32 34.2997 111.179 33.3134 111.781 32.0754C112.383 30.8374 112.684 29.4718 112.684 27.9769C112.684 26.3937 112.199 25.1283 111.228 24.1796C110.259 23.2323 108.904 22.7594 107.164 22.7594C105.691 22.7594 104.398 23.1267 103.283 23.8614C102.167 24.5975 101.309 25.5858 100.707 26.8237C100.105 28.0603 99.8034 29.4274 99.8034 30.9208C99.8034 32.5059 100.288 33.7709 101.259 34.7181C102.229 35.6673 103.584 36.1398 105.324 36.1398C106.797 36.1398 108.089 35.7724 109.205 35.0363ZM98.5823 40.3217C96.8324 39.453 95.4822 38.2367 94.5349 36.6758C93.5862 35.1144 93.1133 33.3307 93.1133 31.3219C93.1133 28.6469 93.7323 26.2371 94.9702 24.0962C96.2086 21.9548 97.9344 20.283 100.156 19.0773C102.373 17.8736 104.9 17.2715 107.733 17.2715C110.096 17.2715 112.154 17.7068 113.905 18.5759C115.655 19.4466 117.006 20.6624 117.953 22.2219C118.902 23.7848 119.374 25.5689 119.374 27.5758C119.374 30.2522 118.755 32.6606 117.517 34.8015C116.281 36.9429 114.551 38.6162 112.332 39.8204C110.113 41.0241 107.587 41.6281 104.756 41.6281C102.39 41.6281 100.334 41.1928 98.5823 40.3217Z" fill="#FEFEFE"/>
<path d="M182.52 40.5159C181.047 39.8357 179.922 38.8595 179.141 37.5874C178.36 36.3171 177.971 34.8242 177.971 33.1046C177.971 32.3921 178.06 31.5654 178.238 30.6301L180.847 17.6494H187.471L184.894 30.5299C184.762 31.198 184.694 31.8122 184.694 32.3699C184.694 34.8242 185.988 36.05 188.574 36.05C189.981 36.05 191.09 35.62 191.904 34.761C192.717 33.9039 193.326 32.4924 193.727 30.5299L196.304 17.6494H202.827L200.185 30.9314C198.756 38.001 194.619 41.5365 187.772 41.5365C185.743 41.5365 183.993 41.1961 182.52 40.5159Z" fill="#FEFEFE"/>
<path d="M81.1322 22.7685L80.0948 27.9194H90.4327L89.3953 33.0385H79.0911L77.4859 41.0674H70.8618L75.5456 17.6494H95.0243L91.7405 22.7685H81.1322Z" fill="#FEFEFE"/>
<path d="M136.728 23.588C136.082 23.1084 135.177 22.8683 134.019 22.8683H130.539L129.135 29.7271H133.082C134.553 29.7271 135.69 29.3819 136.493 28.6897C137.296 27.9994 137.697 27.0179 137.697 25.7457C137.697 24.7869 137.374 24.0672 136.728 23.588ZM142.682 30.6469C141.546 32.1962 139.95 33.3291 137.898 34.0431L141.881 41.0686H134.954L131.475 34.8462H128.13L126.892 41.0686H120.268L124.951 17.6494H134.954C137.944 17.6494 140.262 18.3074 141.913 19.6235C143.564 20.94 144.389 22.768 144.389 25.1099C144.389 27.2507 143.819 29.098 142.682 30.6469Z" fill="#FEFEFE"/>
<path d="M176.632 17.6494L172.015 41.0674H165.894L168.302 28.7221L158.85 41.0674L153.349 28.7221L150.872 41.0674H144.782L149.466 17.6494H155.508L160.34 30.9314L170.324 17.6494H176.632Z" fill="#FEFEFE"/>
<path d="M207.169 17.6494H213.793L210.179 35.8157H220.699L217.32 41.0674H202.485L207.169 17.6494Z" fill="#FEFEFE"/>
<path d="M238.879 31.6336L237.306 24.0402L232.825 31.6336H238.879ZM239.883 36.5175H229.913L227.203 41.0667H220.211L235.233 17.6494H241.757L247.41 41.0667H240.82L239.883 36.5175Z" fill="#FEFEFE"/>
</svg>
