<svg width="21" height="17" viewBox="0 0 21 17" fill="none" xmlns="http://www.w3.org/2000/svg">
<path d="M18.1375 0.942383H3.00208C1.651 0.942383 0.552734 2.04065 0.552734 3.39173V13.7362C0.552734 15.0873 1.651 16.1855 3.00208 16.1855H18.1333C19.4844 16.1855 20.5827 15.0873 20.5827 13.7362V3.39588C20.5868 2.0448 19.4886 0.942383 18.1375 0.942383ZM19.4678 13.7362C19.4678 14.4698 18.8711 15.0666 18.1375 15.0666H3.00208C2.26852 15.0666 1.67173 14.4698 1.67173 13.7362V3.39588C1.67173 2.66232 2.26852 2.06552 3.00208 2.06552H18.1333C18.8669 2.06552 19.4637 2.66232 19.4637 3.39588V13.7362H19.4678Z" fill="#959494"/>
<path d="M13.1849 8.43564L18.0836 4.04256C18.3115 3.83534 18.3322 3.48306 18.125 3.25097C17.9178 3.02303 17.5655 3.00231 17.3334 3.20953L10.578 9.27281L9.26009 8.0958C9.25595 8.09165 9.2518 8.08751 9.2518 8.08336C9.22279 8.05435 9.19378 8.02948 9.16062 8.00462L3.79775 3.20538C3.56566 2.99816 3.21339 3.01888 3.00616 3.25097C2.79894 3.48306 2.81967 3.83534 3.05175 4.04256L8.00848 8.47294L3.07248 13.094C2.84868 13.3053 2.83624 13.6576 3.04761 13.8855C3.15951 14.0016 3.30871 14.0638 3.45791 14.0638C3.59467 14.0638 3.73144 14.014 3.83919 13.9146L8.84979 9.22722L10.2092 10.4415C10.3169 10.5369 10.4495 10.5824 10.5822 10.5824C10.7148 10.5824 10.8515 10.5327 10.9552 10.4374L12.3518 9.18578L17.3334 13.9187C17.4412 14.0223 17.5821 14.072 17.7188 14.072C17.868 14.072 18.0131 14.014 18.125 13.898C18.3364 13.6742 18.3281 13.3178 18.1043 13.1064L13.1849 8.43564Z" fill="#959494"/>
</svg>
