<svg width="17" height="24" viewBox="0 0 17 24" fill="none" xmlns="http://www.w3.org/2000/svg">
<path d="M15.4703 18.4401L14.9992 17.6535C14.152 16.2566 12.9827 14.6533 11.449 14.6533C11.1649 14.6533 10.8835 14.7105 10.6049 14.8262L9.78173 15.1792C9.70654 15.2104 9.63349 15.2458 9.55616 15.2834C9.34548 15.3859 9.10657 15.502 8.86083 15.502C8.25464 15.502 7.55227 14.7131 6.88343 13.2808C6.22701 11.8749 6.26888 11.1379 6.41956 10.7671C6.58583 10.3579 6.97247 10.183 7.38784 10.0258C7.4456 10.0039 7.49777 9.98401 7.5485 9.96313L8.38209 9.61215C10.5538 8.70398 9.74587 5.5303 9.48098 4.48979L9.25633 3.59518C9.06429 2.85787 8.55509 0.899414 6.86611 0.899414C6.55343 0.899414 6.21988 0.972259 5.87501 1.11601C5.64873 1.20587 2.53485 2.47693 1.40673 4.70996C0.0584379 7.36792 0.30774 10.9322 2.14699 15.3016C3.97249 19.6764 6.33969 22.3523 9.18287 23.2548C9.67058 23.4098 10.2218 23.4882 10.8212 23.4882C10.8212 23.4882 10.8214 23.4882 10.8215 23.4882C12.7836 23.4882 14.7205 22.6534 14.8777 22.5841C15.5542 22.2975 15.9915 21.862 16.1773 21.2895C16.4923 20.3187 15.9638 19.2551 15.4703 18.4401ZM14.7236 20.8178C14.6804 20.9509 14.5302 21.0723 14.2775 21.1787C14.2733 21.1805 14.2682 21.1826 14.264 21.1846C14.2464 21.1923 12.4933 21.9602 10.8211 21.9601C10.3788 21.9601 9.98315 21.9057 9.64531 21.7983C7.24999 21.038 5.20178 18.6543 3.55631 14.711C1.89861 10.7726 1.63372 7.64035 2.77009 5.4002C3.65248 3.65366 6.41498 2.5457 6.44208 2.53511C6.44758 2.53287 6.45298 2.53073 6.45838 2.52849C6.61568 2.46247 6.75669 2.42762 6.86611 2.42762C7.20282 2.42762 7.50928 2.94987 7.7756 3.97346L7.99922 4.86431C8.48173 6.75929 8.40828 7.94457 7.79057 8.20294L6.96096 8.55239C6.92795 8.56604 6.88934 8.5804 6.84675 8.5966C6.38849 8.77011 5.43489 9.13097 5.00363 10.1917C4.6123 11.1543 4.77429 12.3763 5.49836 13.9275C6.47356 16.0154 7.57336 17.0303 8.86063 17.0303C9.45805 17.0303 9.93761 16.7972 10.2241 16.658C10.2769 16.6323 10.324 16.6088 10.3748 16.5878L11.1992 16.2343C11.2843 16.1988 11.366 16.1816 11.4489 16.1816C11.8457 16.1816 12.5573 16.5746 13.6904 18.4425L14.1612 19.2286C14.7414 20.1866 14.7872 20.6216 14.7236 20.8178Z" fill="#959494"/>
</svg>
